<svg data-v-423bf9ae="" xmlns="http://www.w3.org/2000/svg" viewBox="0 0 349.51569159240603 163" class="iconAbove"><!----><!----><defs data-v-423bf9ae=""><linearGradient data-v-423bf9ae="" gradientTransform="rotate(25)" id="c706038f-de8e-41f7-b5d2-5479e78547d9" x1="0%" y1="0%" x2="100%" y2="0%"><stop data-v-423bf9ae="" offset="0%" style="stop-color: rgb(2, 120, 2); stop-opacity: 1;"></stop><stop data-v-423bf9ae="" offset="100%" style="stop-color: rgb(0, 57, 0); stop-opacity: 1;"></stop></linearGradient></defs><g data-v-423bf9ae="" id="c42b5cd2-1466-4cca-bf02-6ab5d2b0822a" fill="url(#c706038f-de8e-41f7-b5d2-5479e78547d9)" transform="matrix(5.951181888580322,0,0,5.951181888580322,-3.510275363922119,84.26307678222656)"><path d="M0.90 13.09L0.90 13.09Q0.76 13.09 0.67 13.00L0.67 13.00L0.67 13.00Q0.59 12.91 0.59 12.77L0.59 12.77L0.59 12.49L0.59 12.49Q0.59 12.25 0.69 12.11L0.69 12.11L0.69 12.11Q0.78 11.97 0.80 11.96L0.80 11.96L6.31 4.13L1.02 4.13L1.02 4.13Q0.88 4.13 0.80 4.05L0.80 4.05L0.80 4.05Q0.71 3.96 0.71 3.82L0.71 3.82L0.71 3.61L0.71 3.61Q0.71 3.47 0.80 3.38L0.80 3.38L0.80 3.38Q0.88 3.29 1.02 3.29L1.02 3.29L7.06 3.29L7.06 3.29Q7.21 3.29 7.29 3.37L7.29 3.37L7.29 3.37Q7.38 3.46 7.38 3.61L7.38 3.61L7.38 3.89L7.38 3.89Q7.38 4.05 7.33 4.15L7.33 4.15L7.33 4.15Q7.28 4.26 7.20 4.40L7.20 4.40L1.71 12.25L7.20 12.25L7.20 12.25Q7.35 12.25 7.43 12.33L7.43 12.33L7.43 12.33Q7.52 12.42 7.52 12.57L7.52 12.57L7.52 12.78L7.52 12.78Q7.52 12.92 7.43 13.01L7.43 13.01L7.43 13.01Q7.34 13.09 7.20 13.09L7.20 13.09L0.90 13.09ZM9.56 13.09L9.56 13.09Q9.42 13.09 9.34 13.01L9.34 13.01L9.34 13.01Q9.25 12.92 9.25 12.78L9.25 12.78L9.25 3.46L9.25 3.46Q9.25 3.32 9.34 3.23L9.34 3.23L9.34 3.23Q9.42 3.15 9.56 3.15L9.56 3.15L9.80 3.15L9.80 3.15Q9.94 3.15 10.02 3.23L10.02 3.23L10.02 3.23Q10.11 3.32 10.11 3.46L10.11 3.46L10.11 12.78L10.11 12.78Q10.11 12.92 10.02 13.01L10.02 13.01L10.02 13.01Q9.94 13.09 9.80 13.09L9.80 13.09L9.56 13.09ZM15.09 13.23L15.09 13.23Q13.76 13.23 12.95 12.36L12.95 12.36L12.95 12.36Q12.14 11.48 12.03 10.01L12.03 10.01L12.01 9.45L12.03 8.89L12.03 8.89Q12.14 7.43 12.94 6.55L12.94 6.55L12.94 6.55Q13.75 5.67 15.09 5.67L15.09 5.67L15.09 5.67Q16.55 5.67 17.37 6.64L17.37 6.64L17.37 6.64Q18.19 7.60 18.19 9.28L18.19 9.28L18.19 9.49L18.19 9.49Q18.19 9.63 18.09 9.72L18.09 9.72L18.09 9.72Q18.00 9.80 17.86 9.80L17.86 9.80L12.88 9.80L12.88 9.94L12.88 9.94Q12.91 10.60 13.18 11.16L13.18 11.16L13.18 11.16Q13.45 11.73 13.94 12.07L13.94 12.07L13.94 12.07Q14.43 12.42 15.09 12.42L15.09 12.42L15.09 12.42Q15.86 12.42 16.34 12.12L16.34 12.12L16.34 12.12Q16.83 11.82 17.04 11.51L17.04 11.51L17.04 11.51Q17.16 11.34 17.23 11.30L17.23 11.30L17.23 11.30Q17.29 11.26 17.46 11.26L17.46 11.26L17.68 11.26L17.68 11.26Q17.81 11.26 17.89 11.33L17.89 11.33L17.89 11.33Q17.98 11.40 17.98 11.51L17.98 11.51L17.98 11.51Q17.98 11.80 17.61 12.21L17.61 12.21L17.61 12.21Q17.23 12.63 16.58 12.93L16.58 12.93L16.58 12.93Q15.92 13.23 15.09 13.23L15.09 13.23ZM12.88 9.02L17.33 9.02L17.33 8.96L17.33 8.96Q17.33 7.88 16.72 7.18L16.72 7.18L16.72 7.18Q16.11 6.48 15.09 6.48L15.09 6.48L15.09 6.48Q14.07 6.48 13.47 7.18L13.47 7.18L13.47 7.18Q12.88 7.88 12.88 8.96L12.88 8.96L12.88 9.02ZM22.79 13.23L22.79 13.23Q21.34 13.23 20.54 12.38L20.54 12.38L20.54 12.38Q19.74 11.54 19.70 10.01L19.70 10.01L19.68 9.45L19.70 8.89L19.70 8.89Q19.74 7.36 20.54 6.52L20.54 6.52L20.54 6.52Q21.34 5.67 22.79 5.67L22.79 5.67L22.79 5.67Q23.72 5.67 24.37 6.00L24.37 6.00L24.37 6.00Q25.02 6.33 25.34 6.84L25.34 6.84L25.34 6.84Q25.66 7.35 25.69 7.90L25.69 7.90L25.69 7.90Q25.70 8.02 25.61 8.11L25.61 8.11L25.61 8.11Q25.51 8.20 25.38 8.20L25.38 8.20L25.19 8.20L25.19 8.20Q25.05 8.20 24.98 8.14L24.98 8.14L24.98 8.14Q24.92 8.08 24.85 7.91L24.85 7.91L24.85 7.91Q24.57 7.14 24.07 6.81L24.07 6.81L24.07 6.81Q23.56 6.48 22.79 6.48L22.79 6.48L22.79 6.48Q21.78 6.48 21.19 7.09L21.19 7.09L21.19 7.09Q20.59 7.70 20.55 8.96L20.55 8.96L20.54 9.45L20.55 9.94L20.55 9.94Q20.59 11.20 21.19 11.81L21.19 11.81L21.19 11.81Q21.78 12.42 22.79 12.42L22.79 12.42L22.79 12.42Q23.56 12.42 24.07 12.09L24.07 12.09L24.07 12.09Q24.57 11.76 24.85 10.99L24.85 10.99L24.85 10.99Q24.92 10.82 24.98 10.76L24.98 10.76L24.98 10.76Q25.05 10.70 25.19 10.70L25.19 10.70L25.38 10.70L25.38 10.70Q25.51 10.70 25.61 10.79L25.61 10.79L25.61 10.79Q25.70 10.88 25.69 11.00L25.69 11.00L25.69 11.00Q25.66 11.55 25.34 12.06L25.34 12.06L25.34 12.06Q25.02 12.57 24.37 12.90L24.37 12.90L24.37 12.90Q23.72 13.23 22.79 13.23L22.79 13.23ZM30.24 13.23L30.24 13.23Q28.91 13.23 28.10 12.36L28.10 12.36L28.10 12.36Q27.29 11.48 27.17 10.01L27.17 10.01L27.16 9.45L27.17 8.89L27.17 8.89Q27.29 7.43 28.09 6.55L28.09 6.55L28.09 6.55Q28.90 5.67 30.24 5.67L30.24 5.67L30.24 5.67Q31.70 5.67 32.52 6.64L32.52 6.64L32.52 6.64Q33.33 7.60 33.33 9.28L33.33 9.28L33.33 9.49L33.33 9.49Q33.33 9.63 33.24 9.72L33.24 9.72L33.24 9.72Q33.15 9.80 33.01 9.80L33.01 9.80L28.03 9.80L28.03 9.94L28.03 9.94Q28.06 10.60 28.33 11.16L28.33 11.16L28.33 11.16Q28.60 11.73 29.09 12.07L29.09 12.07L29.09 12.07Q29.58 12.42 30.24 12.42L30.24 12.42L30.24 12.42Q31.01 12.42 31.49 12.12L31.49 12.12L31.49 12.12Q31.98 11.82 32.19 11.51L32.19 11.51L32.19 11.51Q32.31 11.34 32.38 11.30L32.38 11.30L32.38 11.30Q32.44 11.26 32.61 11.26L32.61 11.26L32.83 11.26L32.83 11.26Q32.96 11.26 33.04 11.33L33.04 11.33L33.04 11.33Q33.12 11.40 33.12 11.51L33.12 11.51L33.12 11.51Q33.12 11.80 32.75 12.21L32.75 12.21L32.75 12.21Q32.38 12.63 31.72 12.93L31.72 12.93L31.72 12.93Q31.07 13.23 30.24 13.23L30.24 13.23ZM28.03 9.02L32.48 9.02L32.48 8.96L32.48 8.96Q32.48 7.88 31.87 7.18L31.87 7.18L31.87 7.18Q31.26 6.48 30.24 6.48L30.24 6.48L30.24 6.48Q29.22 6.48 28.62 7.18L28.62 7.18L28.62 7.18Q28.03 7.88 28.03 8.96L28.03 8.96L28.03 9.02ZM35.38 13.09L35.38 13.09Q35.24 13.09 35.15 13.01L35.15 13.01L35.15 13.01Q35.07 12.92 35.07 12.78L35.07 12.78L35.07 12.11L35.07 12.11Q35.07 11.97 35.15 11.88L35.15 11.88L35.15 11.88Q35.24 11.79 35.38 11.79L35.38 11.79L36.05 11.79L36.05 11.79Q36.19 11.79 36.28 11.88L36.28 11.88L36.28 11.88Q36.37 11.97 36.37 12.11L36.37 12.11L36.37 12.78L36.37 12.78Q36.37 12.92 36.28 13.01L36.28 13.01L36.28 13.01Q36.19 13.09 36.05 13.09L36.05 13.09L35.38 13.09ZM39.00 13.09L39.00 13.09Q38.86 13.09 38.78 13.01L38.78 13.01L38.78 13.01Q38.70 12.92 38.70 12.78L38.70 12.78L38.70 3.61L38.70 3.61Q38.70 3.47 38.78 3.38L38.78 3.38L38.78 3.38Q38.86 3.29 39.00 3.29L39.00 3.29L39.30 3.29L39.30 3.29Q39.48 3.29 39.59 3.46L39.59 3.46L44.76 11.35L44.76 3.61L44.76 3.61Q44.76 3.47 44.84 3.38L44.84 3.38L44.84 3.38Q44.93 3.29 45.07 3.29L45.07 3.29L45.32 3.29L45.32 3.29Q45.47 3.29 45.56 3.37L45.56 3.37L45.56 3.37Q45.64 3.46 45.64 3.61L45.64 3.61L45.64 12.77L45.64 12.77Q45.64 12.91 45.56 13.00L45.56 13.00L45.56 13.00Q45.47 13.09 45.33 13.09L45.33 13.09L45.02 13.09L45.02 13.09Q44.84 13.09 44.73 12.92L44.73 12.92L39.58 5.05L39.58 12.78L39.58 12.78Q39.58 12.92 39.49 13.01L39.49 13.01L39.49 13.01Q39.40 13.09 39.26 13.09L39.26 13.09L39.00 13.09ZM50.79 13.23L50.79 13.23Q49.46 13.23 48.65 12.36L48.65 12.36L48.65 12.36Q47.84 11.48 47.73 10.01L47.73 10.01L47.71 9.45L47.73 8.89L47.73 8.89Q47.84 7.43 48.64 6.55L48.64 6.55L48.64 6.55Q49.45 5.67 50.79 5.67L50.79 5.67L50.79 5.67Q52.25 5.67 53.07 6.64L53.07 6.64L53.07 6.64Q53.89 7.60 53.89 9.28L53.89 9.28L53.89 9.49L53.89 9.49Q53.89 9.63 53.80 9.72L53.80 9.72L53.80 9.72Q53.70 9.80 53.56 9.80L53.56 9.80L48.58 9.80L48.58 9.94L48.58 9.94Q48.61 10.60 48.88 11.16L48.88 11.16L48.88 11.16Q49.15 11.73 49.64 12.07L49.64 12.07L49.64 12.07Q50.13 12.42 50.79 12.42L50.79 12.42L50.79 12.42Q51.56 12.42 52.05 12.12L52.05 12.12L52.05 12.12Q52.53 11.82 52.74 11.51L52.74 11.51L52.74 11.51Q52.86 11.34 52.93 11.30L52.93 11.30L52.93 11.30Q52.99 11.26 53.16 11.26L53.16 11.26L53.38 11.26L53.38 11.26Q53.51 11.26 53.59 11.33L53.59 11.33L53.59 11.33Q53.68 11.40 53.68 11.51L53.68 11.51L53.68 11.51Q53.68 11.80 53.31 12.21L53.31 12.21L53.31 12.21Q52.93 12.63 52.28 12.93L52.28 12.93L52.28 12.93Q51.62 13.23 50.79 13.23L50.79 13.23ZM48.58 9.02L53.03 9.02L53.03 8.96L53.03 8.96Q53.03 7.88 52.42 7.18L52.42 7.18L52.42 7.18Q51.81 6.48 50.79 6.48L50.79 6.48L50.79 6.48Q49.77 6.48 49.18 7.18L49.18 7.18L49.18 7.18Q48.58 7.88 48.58 8.96L48.58 8.96L48.58 9.02ZM58.18 13.09L58.18 13.09Q57.15 13.09 56.71 12.47L56.71 12.47L56.71 12.47Q56.28 11.84 56.28 10.75L56.28 10.75L56.28 6.62L55.19 6.62L55.19 6.62Q55.05 6.62 54.96 6.54L54.96 6.54L54.96 6.54Q54.88 6.45 54.88 6.31L54.88 6.31L54.88 6.12L54.88 6.12Q54.88 5.98 54.96 5.89L54.96 5.89L54.96 5.89Q55.05 5.81 55.19 5.81L55.19 5.81L56.28 5.81L56.28 3.46L56.28 3.46Q56.28 3.32 56.36 3.23L56.36 3.23L56.36 3.23Q56.45 3.15 56.59 3.15L56.59 3.15L56.83 3.15L56.83 3.15Q56.97 3.15 57.05 3.23L57.05 3.23L57.05 3.23Q57.13 3.32 57.13 3.46L57.13 3.46L57.13 5.81L58.87 5.81L58.87 5.81Q59.01 5.81 59.09 5.89L59.09 5.89L59.09 5.89Q59.18 5.98 59.18 6.12L59.18 6.12L59.18 6.31L59.18 6.31Q59.18 6.45 59.09 6.54L59.09 6.54L59.09 6.54Q59.01 6.62 58.87 6.62L58.87 6.62L57.13 6.62L57.13 10.70L57.13 10.70Q57.13 11.48 57.39 11.88L57.39 11.88L57.39 11.88Q57.65 12.28 58.25 12.28L58.25 12.28L59.01 12.28L59.01 12.28Q59.15 12.28 59.23 12.36L59.23 12.36L59.23 12.36Q59.32 12.45 59.32 12.59L59.32 12.59L59.32 12.78L59.32 12.78Q59.32 12.92 59.23 13.01L59.23 13.01L59.23 13.01Q59.15 13.09 59.01 13.09L59.01 13.09L58.18 13.09Z"></path></g><defs data-v-423bf9ae=""><linearGradient data-v-423bf9ae="" gradientTransform="rotate(25)" id="92c49ef2-7037-420f-b4f5-688d81f00b6e" x1="0%" y1="0%" x2="100%" y2="0%"><stop data-v-423bf9ae="" offset="0%" style="stop-color: rgb(0, 57, 0); stop-opacity: 1;"></stop><stop data-v-423bf9ae="" offset="100%" style="stop-color: rgb(2, 120, 2); stop-opacity: 1;"></stop></linearGradient></defs><g data-v-423bf9ae="" id="be4f8301-daa5-4964-9643-945349ebee84" transform="matrix(1.921921968460083,0,0,1.921921968460083,127.59242248535156,-2.462111711502075)" stroke="none" fill="url(#92c49ef2-7037-420f-b4f5-688d81f00b6e)"><path clip-rule="evenodd" d="M21.605 23.13h6.832a2.664 2.664 0 0 1 2.646 2.644v7.98H29.73v-6.635h-1.39v6.635h-6.533v-6.635H20.36v6.635h-1.398v-7.98a2.664 2.664 0 0 1 2.643-2.644zm3.444-7.033c1.691 0 3.142 1.396 3.142 3.144 0 1.746-1.451 3.141-3.142 3.141a3.127 3.127 0 0 1-3.144-3.141 3.129 3.129 0 0 1 3.144-3.144zm-1.545-11.32h3.089c.647 0 1.198.549 1.198 1.198v3.642H22.308V5.975a1.18 1.18 0 0 1 1.196-1.198zm1.545-3.191c.745 0 1.396.647 1.396 1.446s-.651 1.398-1.396 1.398c-.799 0-1.449-.599-1.449-1.397s.65-1.447 1.449-1.447zm10.572 6.137l2.543 1.843c.494.399.644 1.145.246 1.645l-2.092 2.943-.501-.35-.549-.398-2.394-1.745-.499-.347-.548-.403 2.146-2.892c.4-.547 1.148-.648 1.648-.296zm3.141-1.649c-.646-.499-1.497-.348-1.998.3-.445.649-.298 1.545.35 1.993.603.45 1.497.3 1.945-.299a1.385 1.385 0 0 0-.297-1.994zm4.987 11.172l.997 2.944c.195.645-.152 1.293-.797 1.545l-3.439 1.094-.152-.599-.201-.597-.948-2.791-.202-.601-.198-.649 3.442-1.096c.598-.199 1.297.15 1.498.75zm3.538.498a1.415 1.415 0 0 0-1.797-.899c-.744.25-1.143 1.049-.947 1.794a1.414 1.414 0 0 0 1.797.899c.746-.247 1.197-1.047.947-1.794zm-2.541 11.967l-.95 2.992c-.198.598-.897.948-1.493.749l-3.442-1.099.198-.595.149-.599.948-2.842.201-.602.197-.598 3.395 1.097c.645.203.992.899.797 1.497zm2.541 2.494a1.415 1.415 0 0 0-.896-1.795 1.417 1.417 0 0 0-1.798.898 1.417 1.417 0 0 0 .896 1.793 1.408 1.408 0 0 0 1.798-.896zm-9.072 8.23l-2.495 1.792c-.55.401-1.299.305-1.692-.248l-2.1-2.891.448-.399.55-.349 2.395-1.746.497-.396.501-.352 2.145 2.892c.396.548.298 1.299-.249 1.697zm.645 3.44c.597-.449.748-1.344.3-1.946-.449-.647-1.348-.796-1.998-.348-.646.499-.796 1.396-.297 1.995.451.649 1.35.799 1.995.299zm-12.217 1.346h-3.09a1.18 1.18 0 0 1-1.199-1.195v-3.591h4.839l.646-.051v3.642c0 .646-.546 1.195-1.196 1.195zm-1.55 3.193c-.748 0-1.395-.65-1.395-1.398 0-.796.601-1.445 1.395-1.445.801 0 1.449.649 1.449 1.396 0 .797-.647 1.447-1.449 1.447zm-10.617-6.085l-2.493-1.794c-.548-.399-.697-1.148-.3-1.697l2.091-2.943.504.399.546.351 2.393 1.746.502.347.544.399-2.096 2.893c-.395.549-1.143.699-1.691.299zm-3.093 1.696c.599.445 1.495.3 1.942-.35.499-.648.351-1.498-.296-1.997-.651-.446-1.547-.296-1.996.351-.447.648-.299 1.547.35 1.996zm-5.09-11.173l-.946-2.939c-.196-.648.152-1.297.75-1.545l3.441-1.1.198.551.206.599.893 2.842.199.599.2.598-3.392 1.146c-.648.2-1.296-.151-1.549-.751zm-3.489-.498a1.42 1.42 0 0 0 1.797.9c.746-.201 1.144-1.049.897-1.794a1.41 1.41 0 0 0-1.793-.899 1.415 1.415 0 0 0-.901 1.793zm7.98-13.415l-.895 2.796-.2.598-.201.649-3.445-1.098c-.596-.199-.943-.898-.745-1.496l.95-2.993c.194-.599.845-.948 1.495-.749l3.439 1.098-.199.549m-8.274-.351c-.254.751.199 1.547.941 1.795.753.201 1.55-.198 1.797-.947.202-.748-.197-1.544-.945-1.793s-1.544.198-1.793.945zm9.07-8.277l2.499-1.847c.495-.396 1.245-.248 1.645.25l2.146 2.892-.502.402-.501.346-2.391 1.796-.5.35-.498.396-2.146-2.889c-.399-.549-.298-1.295.248-1.696zm-.647-3.491a1.382 1.382 0 0 0-.297 1.994c.451.648 1.348.75 1.993.301.598-.451.75-1.347.298-1.996a1.437 1.437 0 0 0-1.994-.299z"></path></g><!----></svg>